<mxfile host="app.diagrams.net" modified="2022-05-22T02:17:25.735Z" agent="5.0 (X11)" etag="UT5LAJMAY0YY5M8Pz64l" version="18.1.1" type="github">
  <diagram id="dTPt1WlTEGHqC2H95aZ0" name="Page-1">
    <mxGraphModel dx="870" dy="584" grid="1" gridSize="10" guides="1" tooltips="1" connect="1" arrows="1" fold="1" page="1" pageScale="1" pageWidth="850" pageHeight="1100" math="0" shadow="0">
      <root>
        <mxCell id="0" />
        <mxCell id="1" parent="0" />
        <mxCell id="TXifJOMxCGuoW-Jv-r6u-1" value="Test Drawing" style="ellipse;whiteSpace=wrap;html=1;" vertex="1" parent="1">
          <mxGeometry x="360" y="260" width="120" height="80" as="geometry" />
        </mxCell>
      </root>
    </mxGraphModel>
  </diagram>
</mxfile>
